# xmcd
#
# Track frame offsets:
#	150
#	20436
#	35746
#	47542
#	63808
#	76213
#	87672
#	107719
#	121722
#	132594
#	145190
#	156593
#
# Disc length: 2329 seconds
#
# Revision: 0
# Processed by: cddbd v1.4PL0 Copyright (c) Steve Scherf et al.
# Submitted via: audiograbber 1.80
#
DISCID=a009170c
DTITLE=GRUPO ALFA, Porque te quiero amor - porque te quiero
DYEAR=1900
DGENRE=
TTITLE0=PORQUE TE QUIERO AMOR
TTITLE1=TUMBA ABANDONADA
TTITLE2=PUÑALES DE FUEGO
TTITLE3=LOS DOS FUIMOS CULPABLES
TTITLE4=TE VAS ANGEL MIO
TTITLE5=CUEROS DE RANA
TTITLE6=ERES TU
TTITLE7=LA ARAÑA
TTITLE8=CAI EN TU TRAMPA
TTITLE9=ALBUR DE AMOR
TTITLE10=MERCELINO VERDUZCO
TTITLE11=COMO TU
EXTD=
EXTT0=
EXTT1=
EXTT2=
EXTT3=
EXTT4=
EXTT5=
EXTT6=
EXTT7=
EXTT8=
EXTT9=
EXTT10=
EXTT11=
PLAYORDER=
